<svg viewBox="0 0 1000 300" xmlns="http://www.w3.org/2000/svg" font-family="Segoe UI,Arial,sans-serif">
  <rect width="1000" height="300" rx="10" fill="#0d1117"/>
  <rect x="14" y="14" width="972" height="272" rx="8" fill="#161b22" stroke="#30363d"/>
  <text x="28" y="38" fill="#e6edf3" font-size="13" font-weight="700">Fleet roster</text>
  <text x="120" y="38" fill="#8b949e" font-size="11">5 host(s), 1 cluster(s)</text>
  <rect x="690" y="24" width="86" height="22" rx="6" fill="#1c2330" stroke="#30363d"/><text x="700" y="39" fill="#e6edf3" font-size="11">Correlation</text>
  <rect x="784" y="24" width="96" height="22" rx="6" fill="#238636"/><text x="794" y="39" fill="#fff" font-size="11">Fleet report</text>
  <!-- header -->
  <rect x="24" y="52" width="952" height="22" fill="#1c2330"/>
  <g font-size="10.5" fill="#c9d1d9"><text x="32" y="67">Host</text><text x="180" y="67">Cluster</text><text x="360" y="67">Type</text><text x="440" y="67">VMs</text><text x="520" y="67">Key files</text><text x="616" y="67">Logons</text><text x="710" y="67">Actions</text><text x="806" y="67">Ind</text><text x="852" y="67">CVE</text><text x="910" y="67">Risk</text></g>
  <g font-size="11" font-family="Consolas,monospace">
    <rect x="24" y="74" width="952" height="26" fill="#2a1416"/>
    <text x="32" y="91" fill="#e6edf3" font-weight="700">esxi-lab03</text><rect x="180" y="80" width="150" height="15" rx="7" fill="#10233a" stroke="#1f6feb"/><text x="186" y="91" fill="#79c0ff" font-size="9">Cluster A · vSAN 7a1c9f2e</text><text x="360" y="91" fill="#e6edf3">ESXi</text><text x="440" y="91" fill="#e6edf3">18</text><text x="520" y="91" fill="#e6edf3">22/22</text><text x="616" y="91" fill="#e6edf3">58 <tspan fill="#ff6b6b">(4)</tspan></text><text x="710" y="91" fill="#e6edf3">35 <tspan fill="#ff6b6b">(3)</tspan></text><text x="806" y="91" fill="#ff6b6b">4</text><text x="852" y="91" fill="#e6edf3">0</text><text x="910" y="91" fill="#ff6b6b" font-weight="700">14</text>
    <rect x="24" y="100" width="952" height="26" fill="#241c12"/>
    <text x="32" y="117" fill="#e6edf3" font-weight="700">esxi-lab01</text><rect x="180" y="106" width="150" height="15" rx="7" fill="#10233a" stroke="#1f6feb"/><text x="186" y="117" fill="#79c0ff" font-size="9">Cluster A · vSAN 7a1c9f2e</text><text x="360" y="117" fill="#e6edf3">ESXi</text><text x="440" y="117" fill="#e6edf3">15</text><text x="520" y="117" fill="#e6edf3">22/22</text><text x="616" y="117" fill="#e6edf3">40</text><text x="710" y="117" fill="#e6edf3">12</text><text x="806" y="117" fill="#e6edf3">1</text><text x="852" y="117" fill="#e6edf3">0</text><text x="910" y="117" fill="#e3b341" font-weight="700">4</text>
    <line x1="24" y1="126" x2="976" y2="126" stroke="#30363d"/>
    <text x="32" y="143" fill="#e6edf3" font-weight="700">esxi-lab02</text><rect x="180" y="132" width="150" height="15" rx="7" fill="#10233a" stroke="#1f6feb"/><text x="186" y="143" fill="#79c0ff" font-size="9">Cluster A · vSAN 7a1c9f2e</text><text x="360" y="143" fill="#e6edf3">ESXi</text><text x="440" y="143" fill="#e6edf3">16</text><text x="520" y="143" fill="#e6edf3">22/22</text><text x="616" y="143" fill="#e6edf3">33</text><text x="710" y="143" fill="#e6edf3">9</text><text x="806" y="143" fill="#e6edf3">0</text><text x="852" y="143" fill="#e6edf3">0</text><text x="910" y="143" fill="#e6edf3" font-weight="700">2</text>
    <line x1="24" y1="152" x2="976" y2="152" stroke="#30363d"/>
    <text x="32" y="169" fill="#e6edf3" font-weight="700">vcsa-lab01</text><rect x="180" y="158" width="120" height="15" rx="7" fill="#10233a" stroke="#1f6feb"/><text x="186" y="169" fill="#79c0ff" font-size="9">Cluster A · vCenter</text><text x="360" y="169" fill="#e6edf3">vCenter</text><text x="440" y="169" fill="#8b949e">-</text><text x="520" y="169" fill="#e6edf3">21/21</text><text x="616" y="169" fill="#e6edf3">72 <tspan fill="#ff6b6b">(2)</tspan></text><text x="710" y="169" fill="#e6edf3">120</text><text x="806" y="169" fill="#e6edf3">0</text><text x="852" y="169" fill="#e3b341">1</text><text x="910" y="169" fill="#e3b341" font-weight="700">5</text>
    <line x1="24" y1="178" x2="976" y2="178" stroke="#30363d"/>
    <text x="32" y="195" fill="#e6edf3" font-weight="700">esxi-dmz01</text><text x="186" y="195" fill="#8b949e" font-size="10">standalone</text><text x="360" y="195" fill="#e6edf3">ESXi</text><text x="440" y="195" fill="#e6edf3">6</text><text x="520" y="195" fill="#e6edf3">22/22</text><text x="616" y="195" fill="#e6edf3">18</text><text x="710" y="195" fill="#e6edf3">4</text><text x="806" y="195" fill="#e6edf3">0</text><text x="852" y="195" fill="#e6edf3">0</text><text x="910" y="195" fill="#e6edf3" font-weight="700">1</text>
  </g>
  <text x="28" y="224" fill="#8b949e" font-size="10.5">Sorted by risk. Grouped by cluster (vSAN sub-cluster UUID). Click a host to open its full triage.</text>
</svg>

