<svg viewBox="0 0 1000 640" xmlns="http://www.w3.org/2000/svg" font-family="Segoe UI,Arial,sans-serif">
  <rect width="1000" height="640" rx="10" fill="#0d1117"/>
  <!-- header -->
  <rect width="1000" height="34" rx="10" fill="#161b22"/><rect y="24" width="1000" height="10" fill="#161b22"/>
  <text x="16" y="22" fill="#e6edf3" font-size="13" font-weight="700">vSphere Support Bundle Triage <tspan fill="#8b949e" font-weight="400">· ESXi &amp; vCenter · v0.9.4</tspan></text>
  <rect x="360" y="9" width="78" height="16" rx="8" fill="none" stroke="#30363d"/><text x="368" y="21" fill="#8b949e" font-size="10">bsdtar v3.8.4</text>
  <rect x="446" y="9" width="88" height="16" rx="8" fill="none" stroke="#2ea043"/><text x="454" y="21" fill="#7ee787" font-size="10">ESXi bundle</text>
  <!-- tabs -->
  <g font-size="11.5">
    <rect x="14" y="46" width="64" height="22" rx="6" fill="#1f6feb"/><text x="24" y="61" fill="#fff">Overview</text>
    <text x="90" y="61" fill="#c9d1d9">Specification</text><text x="176" y="61" fill="#c9d1d9">VMs</text>
    <text x="212" y="61" fill="#c9d1d9">Key Files</text><text x="272" y="61" fill="#c9d1d9">Logons</text>
    <text x="324" y="61" fill="#c9d1d9">Actions</text><text x="378" y="61" fill="#c9d1d9">Timeline</text>
    <text x="438" y="61" fill="#c9d1d9">Persistence</text><text x="516" y="61" fill="#c9d1d9">IOC hits</text>
  </g>
  <!-- node config card -->
  <rect x="14" y="80" width="480" height="228" rx="8" fill="#161b22" stroke="#30363d"/>
  <text x="28" y="102" fill="#8b949e" font-size="10.5" letter-spacing="0.5">NODE CONFIGURATION</text>
  <g font-size="11.5" fill="#e6edf3"><g fill="#8b949e">
    <text x="28" y="124">Host</text><text x="28" y="144">Product</text><text x="28" y="164">Version</text><text x="28" y="184">Build</text><text x="28" y="204">VIB acceptance</text><text x="28" y="224">Cluster</text><text x="28" y="244">Captured on</text></g>
    <text x="150" y="124" fill="#e6edf3">esxi-lab03.corp.local</text><text x="150" y="144">VMware ESXi</text><text x="150" y="164">7.0.3</text>
    <text x="150" y="184">Releasebuild-21930508</text><text x="150" y="204">PartnerSupported</text>
    <text x="150" y="224" fill="#79c0ff">Cluster A · vSAN 7a1c9f2e</text><text x="150" y="244">2026-05-12 12:02 UTC</text>
  </g>
  <!-- coverage -->
  <rect x="506" y="80" width="480" height="228" rx="8" fill="#161b22" stroke="#30363d"/>
  <text x="520" y="102" fill="#8b949e" font-size="10.5" letter-spacing="0.5">KEY-FILE COVERAGE</text>
  <rect x="520" y="112" width="104" height="46" rx="8" fill="#1c2330" stroke="#2ea043"/><text x="534" y="138" fill="#7ee787" font-size="18" font-weight="700">22/22</text><text x="534" y="152" fill="#8b949e" font-size="9">KEY FILES PRESENT</text>
  <rect x="634" y="112" width="104" height="46" rx="8" fill="#1c2330" stroke="#2ea043"/><text x="648" y="138" fill="#7ee787" font-size="18" font-weight="700">7/7</text><text x="648" y="152" fill="#8b949e" font-size="9">CRITICAL PRESENT</text>
  <text x="520" y="178" fill="#8b949e" font-size="10.5" letter-spacing="0.5">INTRUSION / RANSOMWARE INDICATORS</text>
  <g font-size="11">
    <circle cx="526" cy="194" r="4" fill="#f85149"/><text x="538" y="198" fill="#e6edf3">SSH / ESXi Shell used</text><text x="700" y="198" fill="#ff6b6b" font-weight="700">TRIGGERED</text>
    <circle cx="526" cy="214" r="4" fill="#f85149"/><text x="538" y="218" fill="#e6edf3">Host-encryption change / recovery-key</text><text x="700" y="218" fill="#ff6b6b" font-weight="700">TRIGGERED</text>
    <circle cx="526" cy="234" r="4" fill="#3fb950"/><text x="538" y="238" fill="#e6edf3">Ransom notes / encrypted files</text><text x="700" y="238" fill="#3fb950">clear</text>
    <circle cx="526" cy="254" r="4" fill="#3fb950"/><text x="538" y="258" fill="#e6edf3">External source IP on login</text><text x="700" y="258" fill="#3fb950">clear</text>
  </g>
  <text x="520" y="282" fill="#8b949e" font-size="10.5" letter-spacing="0.5">CVE EXPOSURE — advisory</text>
  <g font-size="10.5"><text x="520" y="300" fill="#79c0ff">CVE-2021-21974</text><text x="612" y="300" fill="#8b949e">VMSA-2021-0002</text><text x="920" y="300" fill="#3fb950" font-weight="700">PATCHED</text></g>
  <!-- analysis + bubbles -->
  <rect x="14" y="322" width="972" height="1" fill="#30363d"/>
  <rect x="14" y="334" width="128" height="26" rx="6" fill="#1c2330" stroke="#30363d"/><text x="28" y="351" fill="#e6edf3" font-size="11">Re-run log analysis</text>
  <rect x="150" y="334" width="120" height="26" rx="6" fill="#238636"/><text x="164" y="351" fill="#fff" font-size="11">Case-note report</text>
  <text x="284" y="351" fill="#8b949e" font-size="11">58 logons, 35 actions, 93 timeline, 0 IOC hits.</text>
  <g font-size="9">
    <rect x="14" y="376" width="86" height="46" rx="8" fill="#1c2330" stroke="#30363d"/><text x="26" y="400" fill="#e6edf3" font-size="17" font-weight="700">58</text><text x="26" y="414" fill="#8b949e">LOGONS</text>
    <rect x="108" y="376" width="86" height="46" rx="8" fill="#1c2330" stroke="#8b3a3a"/><text x="120" y="400" fill="#ff6b6b" font-size="17" font-weight="700">35</text><text x="120" y="414" fill="#8b949e">ACTIONS</text>
    <rect x="202" y="376" width="104" height="46" rx="8" fill="#1c2330" stroke="#8b3a3a"/><text x="214" y="400" fill="#ff6b6b" font-size="17" font-weight="700">3</text><text x="214" y="414" fill="#8b949e">FLAGGED ACTION</text>
    <rect x="314" y="376" width="86" height="46" rx="8" fill="#1c2330" stroke="#30363d"/><text x="326" y="400" fill="#e6edf3" font-size="17" font-weight="700">93</text><text x="326" y="414" fill="#8b949e">TIMELINE</text>
    <rect x="408" y="376" width="86" height="46" rx="8" fill="#1c2330" stroke="#30363d"/><text x="420" y="400" fill="#e6edf3" font-size="17" font-weight="700">0</text><text x="420" y="414" fill="#8b949e">IOC HITS</text>
  </g>
  <text x="14" y="446" fill="#8b949e" font-size="10">Bubbles are clickable — jump to the matching tab.</text>
</svg>

