<svg viewBox="0 0 1000 320" xmlns="http://www.w3.org/2000/svg" font-family="Segoe UI,Arial,sans-serif">
  <rect width="1000" height="320" rx="10" fill="#0d1117"/>
  <rect x="14" y="14" width="972" height="292" rx="8" fill="#161b22" stroke="#30363d"/>
  <!-- toolbar -->
  <rect x="28" y="28" width="200" height="22" rx="6" fill="#1c2330" stroke="#30363d"/><text x="38" y="43" fill="#8b949e" font-size="11">filter this view</text>
  <text x="244" y="43" fill="#8b949e" font-size="11">from</text><rect x="272" y="28" width="90" height="22" rx="6" fill="#1c2330" stroke="#30363d"/><text x="372" y="43" fill="#8b949e" font-size="11">→</text><rect x="388" y="28" width="90" height="22" rx="6" fill="#1c2330" stroke="#30363d"/>
  <text x="496" y="43" font-size="11">Score:</text>
  <rect x="536" y="31" width="12" height="12" rx="2" fill="#ff6b6b"/><text x="552" y="43" fill="#ff6b6b" font-size="11">≥5</text>
  <rect x="584" y="31" width="12" height="12" rx="2" fill="#f0883e"/><text x="600" y="43" fill="#f0883e" font-size="11">3-4</text>
  <rect x="636" y="31" width="12" height="12" rx="2" fill="#7ee787"/><text x="652" y="43" fill="#7ee787" font-size="11">1-2</text>
  <rect x="686" y="31" width="12" height="12" rx="2" fill="#8b949e"/><text x="702" y="43" fill="#8b949e" font-size="11">0</text>
  <rect x="820" y="28" width="150" height="22" rx="6" fill="#238636"/><text x="834" y="43" fill="#fff" font-size="11">Export view → CSV</text>
  <!-- header -->
  <rect x="24" y="58" width="952" height="22" fill="#1c2330"/>
  <g font-size="11" fill="#c9d1d9"><text x="34" y="73">Score / tags</text><text x="230" y="73">When (UTC)</text><text x="380" y="73">Kind</text><text x="520" y="73">Detail</text></g>
  <!-- rows -->
  <g font-size="11" font-family="Consolas,monospace">
    <rect x="24" y="80" width="952" height="26" fill="#2a1416"/>
    <rect x="34" y="86" width="20" height="14" rx="4" fill="#3a1416"/><text x="40" y="97" fill="#ff6b6b" font-weight="700">6</text>
    <rect x="60" y="86" width="30" height="14" rx="7" fill="#3a1416" stroke="#b83030"/><text x="65" y="97" fill="#ff6b6b" font-size="9">IOC</text>
    <rect x="94" y="86" width="58" height="14" rx="7" fill="#3a1416" stroke="#b83030"/><text x="99" y="97" fill="#ff6b6b" font-size="9">SUSPECT</text>
    <text x="230" y="97" fill="#e6edf3">2026-05-12 10:04:20</text><text x="380" y="97" fill="#ff6b6b" font-weight="700">shell command</text><text x="520" y="97" fill="#e6edf3">root: esxcli system settings encryption set --mode=TPM</text>
    <rect x="24" y="106" width="952" height="26" fill="#241c12"/>
    <rect x="34" y="112" width="20" height="14" rx="4" fill="#3a2a10"/><text x="40" y="123" fill="#f0883e" font-weight="700">3</text>
    <rect x="60" y="112" width="58" height="14" rx="7" fill="#3a1416" stroke="#b83030"/><text x="65" y="123" fill="#ff6b6b" font-size="9">SUSPECT</text>
    <text x="230" y="123" fill="#e6edf3">2026-05-12 10:31:50</text><text x="380" y="123" fill="#ff6b6b" font-weight="700">shell command</text><text x="520" y="123" fill="#e6edf3">root: vim-cmd hostsvc/enable_ssh</text>
    <line x1="24" y1="132" x2="976" y2="132" stroke="#30363d"/>
    <rect x="34" y="138" width="20" height="14" rx="4" fill="#3a2a10"/><text x="40" y="149" fill="#f0883e" font-weight="700">3</text>
    <rect x="60" y="138" width="54" height="14" rx="7" fill="#241033" stroke="#6a3aa0"/><text x="65" y="149" fill="#c297ff" font-size="9">EXTERNAL</text>
    <text x="230" y="149" fill="#e6edf3">2026-05-12 09:22:42</text><text x="380" y="149" fill="#8b949e">logon</text><text x="520" y="149" fill="#e6edf3">OK root from 203.0.113.66 (ssh)</text>
    <line x1="24" y1="158" x2="976" y2="158" stroke="#30363d"/>
    <rect x="34" y="164" width="20" height="14" rx="4" fill="#20301f"/><text x="40" y="175" fill="#7ee787" font-weight="700">1</text>
    <rect x="60" y="164" width="34" height="14" rx="7" fill="#0f2a1a" stroke="#2ea043"/><text x="65" y="175" fill="#7ee787" font-size="9">PRIV</text>
    <text x="230" y="175" fill="#e6edf3">2026-05-12 09:22:42</text><text x="380" y="175" fill="#79c0ff">vpxd task</text><text x="520" y="175" fill="#e6edf3">administrator@vsphere.local: ReconfigVM_Task</text>
    <line x1="24" y1="184" x2="976" y2="184" stroke="#30363d"/>
    <rect x="34" y="190" width="20" height="14" rx="4" fill="#20301f"/><text x="40" y="201" fill="#7ee787" font-weight="700">1</text>
    <text x="230" y="201" fill="#e6edf3">2026-05-12 09:41:10</text><text x="380" y="201" fill="#f0883e">sudo command</text><text x="520" y="201" fill="#e6edf3">svc-backup: /usr/bin/backup.sh --full</text>
  </g>
  <text x="28" y="228" fill="#8b949e" font-size="10">Row tint = score (red ≥5, amber 3-4); red left-border = IOC hit. Kind: shell command in red = attacker-typed.</text>
</svg>

