<svg viewBox="0 0 1000 340" xmlns="http://www.w3.org/2000/svg" font-family="Segoe UI,Arial,sans-serif">
  <rect width="1000" height="340" rx="10" fill="#0d1117"/>
  <rect x="14" y="14" width="972" height="312" rx="8" fill="#161b22" stroke="#30363d"/>
  <text x="28" y="38" fill="#e6edf3" font-size="13" font-weight="700">Hosted VMs</text>
  <text x="120" y="38" fill="#8b949e" font-size="11">18 VMs · 16 running · 148 vCPU · 612 GB vRAM · 18 on vSAN · 12 guest IP (from vCenter)</text>
  <rect x="770" y="24" width="126" height="22" rx="6" fill="#238636"/><text x="784" y="39" fill="#fff" font-size="11">Export VMs → CSV</text>
  <!-- header row -->
  <rect x="24" y="52" width="952" height="24" fill="#1c2330"/>
  <g font-size="11" fill="#c9d1d9"><text x="34" y="68">VM</text><text x="196" y="68">Guest OS</text><text x="384" y="68">Guest IP</text><text x="486" y="68">vCPU</text><text x="546" y="68">vRAM</text><text x="616" y="68">vDisks</text><text x="756" y="68">Storage</text><text x="880" y="68">Status</text></g>
  <g font-size="11" font-family="Consolas,monospace">
    <!-- rows -->
    <g><text x="34" y="94" fill="#e6edf3" font-weight="700">vm-dc01</text><text x="196" y="94" fill="#8b949e">Windows Server 2022</text><text x="384" y="94" fill="#e6edf3">10.20.30.11</text><text x="486" y="94" fill="#e6edf3">4</text><text x="546" y="94" fill="#e6edf3">16 GB</text><text x="616" y="94" fill="#8b949e">2 (vm-dc01.vmdk…)</text><rect x="756" y="84" width="42" height="15" rx="7" fill="#10233a" stroke="#1f6feb"/><text x="762" y="95" fill="#79c0ff" font-size="9.5">vSAN</text><text x="880" y="94" fill="#3fb950">running</text></g>
    <line x1="24" y1="104" x2="976" y2="104" stroke="#30363d"/>
    <g><text x="34" y="122" fill="#e6edf3" font-weight="700">vm-app01</text><text x="196" y="122" fill="#8b949e">Ubuntu 22.04.3 LTS</text><text x="384" y="122" fill="#e6edf3">10.20.30.24</text><text x="486" y="122" fill="#e6edf3">2</text><text x="546" y="122" fill="#e6edf3">8 GB</text><text x="616" y="122" fill="#8b949e">1 (vm-app01.vmdk)</text><rect x="756" y="112" width="42" height="15" rx="7" fill="#10233a" stroke="#1f6feb"/><text x="762" y="123" fill="#79c0ff" font-size="9.5">vSAN</text><text x="880" y="122" fill="#3fb950">running</text></g>
    <line x1="24" y1="132" x2="976" y2="132" stroke="#30363d"/>
    <g><text x="34" y="150" fill="#e6edf3" font-weight="700">vm-sql01</text><text x="196" y="150" fill="#8b949e">Windows Server 2019</text><text x="384" y="150" fill="#e6edf3">10.20.30.31</text><text x="486" y="150" fill="#e6edf3">8</text><text x="546" y="150" fill="#e6edf3">64 GB</text><text x="616" y="150" fill="#8b949e">3 (vm-sql01.vmdk…)</text><rect x="756" y="140" width="42" height="15" rx="7" fill="#10233a" stroke="#1f6feb"/><text x="762" y="151" fill="#79c0ff" font-size="9.5">vSAN</text><text x="880" y="150" fill="#3fb950">running</text></g>
    <line x1="24" y1="160" x2="976" y2="160" stroke="#30363d"/>
    <g><text x="34" y="178" fill="#e6edf3" font-weight="700">vm-fs02</text><text x="196" y="178" fill="#8b949e">Debian GNU/Linux 12</text><text x="384" y="178" fill="#8b949e">-</text><text x="486" y="178" fill="#e6edf3">4</text><text x="546" y="178" fill="#e6edf3">12 GB</text><text x="616" y="178" fill="#8b949e">2 (vm-fs02.vmdk…)</text><rect x="756" y="168" width="42" height="15" rx="7" fill="#10233a" stroke="#1f6feb"/><text x="762" y="179" fill="#79c0ff" font-size="9.5">vSAN</text><text x="880" y="178" fill="#8b949e">registered</text></g>
    <line x1="24" y1="188" x2="976" y2="188" stroke="#30363d"/>
    <g><text x="34" y="206" fill="#e6edf3" font-weight="700">vm-bkp01</text><text x="196" y="206" fill="#8b949e">Oracle Linux 8</text><text x="384" y="206" fill="#e6edf3">10.20.30.60</text><text x="486" y="206" fill="#e6edf3">2</text><text x="546" y="206" fill="#e6edf3">8 GB</text><text x="616" y="206" fill="#8b949e">4 (vm-bkp01.vmdk…)</text><rect x="756" y="196" width="42" height="15" rx="7" fill="#10233a" stroke="#1f6feb"/><text x="762" y="207" fill="#79c0ff" font-size="9.5">vSAN</text><text x="880" y="206" fill="#3fb950">running</text></g>
  </g>
  <text x="28" y="248" fill="#8b949e" font-size="10.5">Click a VM to preview its .vmx (full disk paths for recovery). Guest IP is sourced from a vCenter in the loaded fleet.</text>
  <text x="28" y="300" fill="#79c0ff" font-size="11" font-family="Consolas,monospace">scsi0:0.fileName = "vm-dc01.vmdk"    scsi0:1.fileName = "vm-dc01_1.vmdk"</text>
  <text x="28" y="268" fill="#c9d1d9" font-size="11" font-weight="700">▸ vm-dc01.vmx preview</text>
</svg>

